<svg id="图层_1" data-name="图层 1" xmlns="http://www.w3.org/2000/svg" xmlns:xlink="http://www.w3.org/1999/xlink" viewBox="0 0 368.3 156.41"><defs><style>.cls-1{fill:none;stroke:#e71f19;stroke-miterlimit:10;}.cls-2{fill:#3e3a39;}.cls-3{fill:url(#未命名的渐变_26);}.cls-4{fill:url(#未命名的渐变_12);}</style><linearGradient id="未命名的渐变_26" x1="3.01" y1="86.04" x2="101.42" y2="24.54" gradientUnits="userSpaceOnUse"><stop offset="0.41" stop-color="#fdd000"/><stop offset="1" stop-color="#594600"/></linearGradient><linearGradient id="未命名的渐变_12" x1="86.49" y1="158.57" x2="120.88" y2="9.58" gradientUnits="userSpaceOnUse"><stop offset="0" stop-color="#fdd000"/><stop offset="0.32" stop-color="#fdd100"/><stop offset="1" stop-color="#fcd475"/></linearGradient></defs><rect class="cls-1" x="-50.85" y="-156.6" width="470" height="470" rx="235"/><path class="cls-2" d="M368.3,74.51l-5.66-1.84a.73.73,0,0,1-.51-.7V52.8a.74.74,0,0,1,.74-.74h5.07V45.25h-5.07a.74.74,0,0,1-.74-.74V34.73h-8v9.78a.74.74,0,0,1-.74.74h-2.25v6.81h2.25a.74.74,0,0,1,.74.74V71a.74.74,0,0,1-.74.74h-8.51a.74.74,0,0,1-.74-.74V52.8a.74.74,0,0,1,.74-.74h2.63V45.25h-2.63a.74.74,0,0,1-.74-.74V34.73h-8v9.78a.74.74,0,0,1-.74.74H329.6v6.81h5.75a.74.74,0,0,1,.74.74V71.4a.75.75,0,0,1-.52.71L326.63,75a.73.73,0,0,1-1-.7V64.65a.74.74,0,0,1,.73-.74h2.82V57.1H326.4a.74.74,0,0,1-.73-.74V46.07a.74.74,0,0,1,.73-.74h2.82v-6.8H312.87v6.8h4a.74.74,0,0,1,.74.74V56.36a.74.74,0,0,1-.74.74h-4v6.81h4a.74.74,0,0,1,.74.74V77.4a.73.73,0,0,1-.51.7l-5.61,1.82,2.1,6.48,21.5-7a.74.74,0,0,1,1,.71V92.24h8v-13a.74.74,0,0,1,.74-.74h8.51a.74.74,0,0,1,.74.74v13h8V80.68a.73.73,0,0,1,1-.7l3.1,1Z"/><path class="cls-2" d="M292.7,43.47v-9.1h-8v9.1h-14v.85h-.13V73.06L265,74.84a.73.73,0,0,1-1-.7V55.55a.74.74,0,0,1,.74-.74h4.29V48h-4.29a.74.74,0,0,1-.74-.74V34.73h-8V47.26a.74.74,0,0,1-.74.74h-5.26v6.81h5.26a.74.74,0,0,1,.74.74V77.23a.73.73,0,0,1-.51.7l-6.13,2,2.1,6.48L271.15,80h13.52V92.19h8V80h14V43.47ZM298,73.21H279.28a.74.74,0,0,1-.74-.74V51a.74.74,0,0,1,.74-.74H298a.74.74,0,0,1,.74.74V72.47A.74.74,0,0,1,298,73.21Z"/><rect class="cls-2" x="283.45" y="55.58" width="10.47" height="12.34"/><path class="cls-2" d="M191.22,36.72V62.43q0,16.79-5.46,24.83,3.35,2.52,6.75,5.63,6.81-10.4,6.81-29.64v-19a.74.74,0,0,1,.73-.74H211.9a.74.74,0,0,1,.74.74v2.57a.74.74,0,0,1-.74.74h-9.42v5.63h8a.43.43,0,0,1,.14.84L201,57.21V63h30.87V57.21h-11a.43.43,0,0,1-.13-.84l9.7-3.16V47.58H221a.74.74,0,0,1-.74-.74V44.27a.74.74,0,0,1,.74-.74h11.61a.74.74,0,0,1,.74.74V79.45a7.48,7.48,0,0,1-.66,3.11Q232,84,227.84,84q-3.34,0-6.05-.24.94,3.64,1.77,7.87c3.4,0,6.5,0,9.28-.09a8,8,0,0,0,6.4-3q2.22-2.9,2.22-8.55V36.72Z"/><path class="cls-2" d="M228.9,82.21V66.42H203.78V82.21ZM211.23,76V72.68a.74.74,0,0,1,.74-.74h8.73a.74.74,0,0,1,.74.74V76a.74.74,0,0,1-.74.74H212A.74.74,0,0,1,211.23,76Z"/><path class="cls-2" d="M185.51,121.76V100.25h7.43q11.46,0,11.46,10.48a10.47,10.47,0,0,1-3.21,8,11.57,11.57,0,0,1-8.28,3Zm4.58-16.47v11.42a1.3,1.3,0,0,0,1.3,1.3h1.2a6.78,6.78,0,0,0,5.13-1.94,7.31,7.31,0,0,0,1.86-5.27,6.51,6.51,0,0,0-1.94-5,7.19,7.19,0,0,0-5.06-1.79h-1.19A1.3,1.3,0,0,0,190.09,105.29Z"/><path class="cls-2" d="M219.74,121.76H207V100.25h12.24V104h-6.35a1.3,1.3,0,0,0-1.3,1.29v2.48a1.3,1.3,0,0,0,1.3,1.3h5.81v3.73h-5.81a1.3,1.3,0,0,0-1.3,1.3v2.61a1.3,1.3,0,0,0,1.3,1.3h6.85Z"/><path class="cls-2" d="M222,116.35a9,9,0,0,0,5.9,2.15,5,5,0,0,0,2.82-.65,1.94,1.94,0,0,0,.95-1.66,2.36,2.36,0,0,0-.75-1.65,14.08,14.08,0,0,0-4-2.11c-3.36-1.43-5-3.5-5-6.23a5.44,5.44,0,0,1,2.28-4.66,10.13,10.13,0,0,1,6.05-1.66,15,15,0,0,1,5.29.82V105a8.79,8.79,0,0,0-5.07-1.47,5,5,0,0,0-2.7.62,1.87,1.87,0,0,0-1,1.66,2.13,2.13,0,0,0,.7,1.53,12.82,12.82,0,0,0,3.43,1.9,11.12,11.12,0,0,1,4.41,2.9,5.71,5.71,0,0,1,1.2,3.64,5.5,5.5,0,0,1-2.2,4.72,10.27,10.27,0,0,1-6.23,1.63,13.37,13.37,0,0,1-6.06-1.2Z"/><path class="cls-2" d="M243.53,100.25v21.51H239V100.25Z"/><path class="cls-2" d="M265,120.32a15.32,15.32,0,0,1-7.75,1.82,11.16,11.16,0,0,1-8.11-2.89,10.49,10.49,0,0,1-3-7.91,11,11,0,0,1,3.27-8.27A11.85,11.85,0,0,1,258,99.88a17,17,0,0,1,6,1v4.34a12,12,0,0,0-6.11-1.45,6.66,6.66,0,0,0-5.05,2,8.59,8.59,0,0,0-.18,10.62,6.13,6.13,0,0,0,4.75,1.89,7.8,7.8,0,0,0,2-.22,1.28,1.28,0,0,0,1-1.25V114.6a1.3,1.3,0,0,0-1.29-1.3h-3v-3.68H265Z"/><path class="cls-2" d="M287.19,121.76H282.5l-8.42-13a.93.93,0,0,0-1.71.51l0,12.5h-4.34V100.25h5l8.12,12.57a.93.93,0,0,0,1.71-.51l0-12.06h4.34Z"/><path class="cls-2" d="M303,121.76H290.27V100.25h12.24V104h-6.36a1.29,1.29,0,0,0-1.29,1.29v2.48a1.3,1.3,0,0,0,1.29,1.3H302v3.73h-5.82a1.3,1.3,0,0,0-1.29,1.3v2.61a1.3,1.3,0,0,0,1.29,1.3H303Z"/><path class="cls-2" d="M323,121.76h-5.27l-3.38-5.6a8.21,8.21,0,0,0-1.71-2.23,2.28,2.28,0,0,0-1.42-.5h-.09a1.3,1.3,0,0,0-1.29,1.3v7H305.2V100.25h7.54q7.68,0,7.69,5.83a6,6,0,0,1-1.29,3.76,6.69,6.69,0,0,1-2.42,1.82.6.6,0,0,0-.12,1,11.15,11.15,0,0,1,2.3,2.72ZM309.79,105v3.6a1.3,1.3,0,0,0,1.29,1.3h1a3.63,3.63,0,0,0,2.59-.94,3.13,3.13,0,0,0,1-2.34c0-2-1.17-2.92-3.49-2.92h-1A1.3,1.3,0,0,0,309.79,105Z"/><path class="cls-3" d="M91.35,9,85.58,3.18a10.53,10.53,0,0,0-14.9,0L3.08,70.77h0a10.5,10.5,0,0,0,0,14.85l9.73,9.75a10.5,10.5,0,0,0,8.43,3l32.36-3.09,2.83-29.63L53.58,66A1.73,1.73,0,0,1,52.19,63L91.35,23.85A10.54,10.54,0,0,0,91.35,9Z"/><path class="cls-4" d="M153.33,70.77,143.6,61a10.45,10.45,0,0,0-8.38-3L107.07,60.7l-4.24.41L100,90.74l3.19-.3a1.63,1.63,0,0,1,1.31,2.78l-13,13a.72.72,0,0,1-1.22-.57l8.07-84.51a10.54,10.54,0,0,0-3-8.45L85.64,3.08a10.53,10.53,0,0,0-15,.07h0l-12.6,132a10.43,10.43,0,0,0,3,8.39L71,153.35a10.45,10.45,0,0,0,14.77,0h0l.06-.06L153.36,85.7l0-.06h0A10.58,10.58,0,0,0,153.33,70.77Z"/></svg>