<svg id="图层_1" data-name="图层 1" xmlns="http://www.w3.org/2000/svg" viewBox="0 0 548.57 265.38"><defs><style>.cls-1{fill:#3e3a39;}</style></defs><path class="cls-1" d="M548.57,121.26l-16.94-5.51a2.19,2.19,0,0,1-1.53-2.1V56.24A2.21,2.21,0,0,1,532.31,54H547.5V33.64H532.31a2.21,2.21,0,0,1-2.21-2.21V2.12h-24V31.43a2.21,2.21,0,0,1-2.22,2.21h-6.76V54h6.76a2.21,2.21,0,0,1,2.22,2.21v54.35a2.21,2.21,0,0,1-2.22,2.22h-25.5a2.21,2.21,0,0,1-2.22-2.22V56.24A2.21,2.21,0,0,1,478.35,54h7.87V33.64h-7.87a2.21,2.21,0,0,1-2.22-2.21V2.12h-24V31.43a2.21,2.21,0,0,1-2.21,2.21H432.67V54h17.22a2.21,2.21,0,0,1,2.21,2.21V112a2.21,2.21,0,0,1-1.53,2.11l-26.77,8.7a2.22,2.22,0,0,1-2.9-2.11V91.72a2.21,2.21,0,0,1,2.21-2.21h8.44V69.12h-8.44a2.21,2.21,0,0,1-2.21-2.21V36.1a2.21,2.21,0,0,1,2.21-2.21h8.44V13.49h-49v20.4h12.08a2.21,2.21,0,0,1,2.21,2.21V66.91a2.21,2.21,0,0,1-2.21,2.21H382.58V89.51h12.08a2.21,2.21,0,0,1,2.21,2.21v38.19a2.2,2.2,0,0,1-1.53,2.1l-16.82,5.47,6.31,19.39L449.21,136a2.2,2.2,0,0,1,2.89,2.1v36.33h24v-39a2.21,2.21,0,0,1,2.22-2.21h25.5a2.21,2.21,0,0,1,2.22,2.21v39h24V139.74a2.2,2.2,0,0,1,2.89-2.1l9.28,3Z"/><path class="cls-1" d="M322.15,28.31V1.06h-24V28.31h-42v2.54h-.4v86.08l-16.4,5.33a2.21,2.21,0,0,1-2.89-2.1V64.47a2.21,2.21,0,0,1,2.21-2.22h12.87V41.86H238.66a2.21,2.21,0,0,1-2.21-2.21V2.12h-24V39.65a2.21,2.21,0,0,1-2.22,2.21H194.45V62.25H210.2a2.21,2.21,0,0,1,2.22,2.22V129.4a2.23,2.23,0,0,1-1.53,2.11l-18.38,6,6.3,19.39,58.81-19.11h40.5V174.2h24V137.76h42V28.31Zm15.75,89.06H282a2.21,2.21,0,0,1-2.21-2.21V50.91A2.21,2.21,0,0,1,282,48.7H337.9a2.21,2.21,0,0,1,2.21,2.21v64.25A2.21,2.21,0,0,1,337.9,117.37Z"/><rect class="cls-1" x="294.47" y="64.56" width="31.35" height="36.95"/><path class="cls-1" d="M18.23,8.09v77q.18,50.28-16.34,74.36,10,7.56,20.21,16.87Q42.49,145.2,42.49,87.54V30.7a2.21,2.21,0,0,1,2.21-2.22H80.18a2.21,2.21,0,0,1,2.21,2.22v7.7a2.21,2.21,0,0,1-2.21,2.21H52V57.49H75.79a1.28,1.28,0,0,1,.4,2.5L47.41,69.44V86.67h92.46V69.44H107a1.29,1.29,0,0,1-.4-2.51l29.06-9.44V40.61h-28.2a2.21,2.21,0,0,1-2.21-2.21V30.7a2.21,2.21,0,0,1,2.21-2.22h34.78a2.21,2.21,0,0,1,2.21,2.22V136.06a22.36,22.36,0,0,1-2,9.31q-2,4.41-14.54,4.4-10,0-18.11-.7,2.82,10.89,5.28,23.55,15.28.18,27.81-.26t19.16-9.1q6.63-8.65,6.64-25.62V8.09Z"/><path class="cls-1" d="M131.08,144.32V97H55.85v47.28ZM78.17,125.58v-9.81a2.21,2.21,0,0,1,2.22-2.21h26.15a2.21,2.21,0,0,1,2.22,2.21v9.81a2.21,2.21,0,0,1-2.22,2.22H80.39A2.21,2.21,0,0,1,78.17,125.58Z"/><path class="cls-1" d="M1.14,262.78V198.34H23.4q34.32,0,34.32,31.41,0,14.94-9.61,24t-24.79,9Zm13.73-49.32v34.2a3.89,3.89,0,0,0,3.89,3.89h3.6q9.78,0,15.35-5.83T43.29,230q0-9.61-5.83-15t-15.14-5.39H18.76A3.89,3.89,0,0,0,14.87,213.46Z"/><path class="cls-1" d="M103.66,262.78H65.52V198.34h36.65v11.23h-19a3.89,3.89,0,0,0-3.89,3.89v7.41a3.89,3.89,0,0,0,3.89,3.89h17.41V236H83.13a3.89,3.89,0,0,0-3.89,3.89v7.82a3.89,3.89,0,0,0,3.89,3.89h20.53Z"/><path class="cls-1" d="M110.34,246.56A27,27,0,0,0,128,253c3.75,0,6.56-.65,8.45-1.94a5.83,5.83,0,0,0,2.83-5,7.05,7.05,0,0,0-2.25-4.95q-2.25-2.33-11.86-6.32-15.09-6.42-15.1-18.64,0-9,6.84-14t18.12-5a44.7,44.7,0,0,1,15.85,2.45v12.9a26.35,26.35,0,0,0-15.18-4.41,15.48,15.48,0,0,0-8.11,1.85,5.6,5.6,0,0,0-3,5,6.41,6.41,0,0,0,2.08,4.6q2.08,2.1,10.27,5.68,9.62,4.11,13.21,8.69a17.11,17.11,0,0,1,3.6,10.9q0,9.29-6.57,14.15t-18.68,4.87q-11.07,0-18.14-3.58Z"/><path class="cls-1" d="M174.91,198.34v64.44H161.18V198.34Z"/><path class="cls-1" d="M239.12,258.45q-9.45,5.46-23.22,5.46-15.39,0-24.29-8.66t-8.91-23.67q0-15.22,9.8-24.77t25.81-9.55a50.86,50.86,0,0,1,18,2.91v13q-7.49-4.37-18.31-4.37-9.32,0-15.1,6.08t-5.78,16q0,10.11,5.22,15.77t14.25,5.66a24.23,24.23,0,0,0,5.88-.64,3.85,3.85,0,0,0,2.9-3.76v-6.61a3.89,3.89,0,0,0-3.89-3.88h-9.13v-11h26.75Z"/><path class="cls-1" d="M305.68,262.78H291.62l-25.22-39a2.79,2.79,0,0,0-5.12,1.53l.13,37.44h-13V198.34h15L287.7,236a2.78,2.78,0,0,0,5.12-1.52l-.17-36.13h13Z"/><path class="cls-1" d="M353.05,262.78H314.9V198.34h36.65v11.23h-19a3.89,3.89,0,0,0-3.88,3.89v7.41a3.89,3.89,0,0,0,3.88,3.89h17.42V236H332.51a3.89,3.89,0,0,0-3.88,3.89v7.82a3.89,3.89,0,0,0,3.88,3.89h20.54Z"/><path class="cls-1" d="M412.78,262.78H397L386.86,246q-3.12-5.21-5.12-6.7a6.93,6.93,0,0,0-4.24-1.5h-.27a3.89,3.89,0,0,0-3.89,3.89v21.07H359.61V198.34H382.2q23,0,23,17.47a18,18,0,0,1-3.85,11.28,20.17,20.17,0,0,1-7.26,5.42,1.8,1.8,0,0,0-.36,3,33.27,33.27,0,0,1,6.89,8.14Zm-39.44-50.11v10.78a3.89,3.89,0,0,0,3.89,3.89h2.85a10.78,10.78,0,0,0,7.76-2.81,9.32,9.32,0,0,0,2.93-7q0-8.75-10.44-8.74h-3.1A3.89,3.89,0,0,0,373.34,212.67Z"/></svg>